<?xml version="1.0" standalone="no"?>
<!DOCTYPE svg PUBLIC "-//W3C//DTD SVG 20010904//EN"
 "http://www.w3.org/TR/2001/REC-SVG-20010904/DTD/svg10.dtd">
<svg version="1.0" xmlns="http://www.w3.org/2000/svg"
 width="512.000000pt" height="512.000000pt" viewBox="0 0 512.000000 512.000000"
 preserveAspectRatio="xMidYMid meet">
<metadata>
Created by potrace 1.14, written by Peter Selinger 2001-2017
</metadata>
<g transform="translate(0.000000,512.000000) scale(0.100000,-0.100000)"
fill="#000000" stroke="none">
<path d="M2484 5050 l-42 -5 0 -587 c0 -494 3 -588 14 -588 12 0 14 51 14 299
l0 299 183 0 c256 1 249 0 244 15 -3 9 -53 12 -203 13 -109 1 -205 2 -212 3
-10 1 -12 57 -10 264 l3 262 350 0 c292 0 350 2 350 14 0 11 -55 14 -325 15
-179 0 -344 -1 -366 -4z"/>
<path d="M3689 5049 c-93 -16 -222 -124 -269 -226 -71 -153 -84 -206 -85 -363
-1 -138 0 -149 30 -235 18 -49 42 -112 54 -140 31 -67 122 -160 196 -197 57
-29 66 -31 180 -30 113 0 123 2 180 30 115 58 194 166 252 343 26 78 28 98 28
225 -1 124 -4 148 -29 223 -41 127 -82 200 -146 263 -87 85 -138 107 -258 110
-55 2 -115 0 -133 -3z m269 -53 c60 -31 152 -121 184 -181 11 -22 35 -83 52
-135 31 -90 32 -102 31 -235 -2 -123 -5 -149 -28 -218 -15 -43 -38 -99 -51
-125 -34 -67 -126 -157 -194 -190 -52 -26 -65 -28 -162 -27 -92 2 -111 5 -157
28 -111 57 -191 162 -243 322 -20 59 -24 92 -24 215 -1 133 1 152 26 227 15
45 39 105 54 133 36 69 126 157 195 189 50 24 66 27 160 26 92 -1 110 -5 157
-29z"/>
<path d="M882 4455 c0 -490 3 -585 14 -585 12 0 14 95 14 585 0 491 -2 585
-14 585 -11 0 -14 -94 -14 -585z"/>
<path d="M1270 4456 c0 -513 2 -586 15 -586 13 0 15 71 17 556 l3 557 370
-556 c231 -347 376 -556 386 -557 15 0 16 53 16 585 0 487 -2 585 -13 585 -12
0 -14 -94 -14 -561 l0 -561 -372 559 c-221 330 -380 559 -390 561 -17 3 -18
-30 -18 -582z"/>
<path d="M874 3746 c-2 -6 -3 -834 -2 -1841 l3 -1830 983 -3 c782 -2 982 0
983 10 0 7 1 393 1 858 l1 845 131 165 c72 91 139 174 148 185 17 20 874 1094
937 1174 l34 43 -29 24 c-16 13 -34 23 -40 24 -6 0 -251 -300 -545 -667 -293
-368 -538 -673 -544 -679 -5 -7 -39 -48 -74 -92 l-64 -81 -61 77 c-35 42 -122
151 -195 242 -72 91 -137 172 -144 180 -7 8 -147 184 -312 390 -165 206 -302
377 -305 380 -4 3 -50 60 -103 128 -53 67 -103 122 -110 122 -7 0 -25 -12 -39
-27 l-25 -28 623 -780 624 -780 0 -806 0 -807 -890 0 -890 0 0 1789 c0 984 -3
1789 -7 1790 -42 6 -86 3 -89 -5z"/>
</g>
</svg>
