<?xml version="1.0" ?><svg id="Icon_Set" style="enable-background:new 0 0 64 64;" version="1.1" viewBox="0 0 64 64" xml:space="preserve" xmlns="http://www.w3.org/2000/svg" xmlns:xlink="http://www.w3.org/1999/xlink"><style type="text/css">
	.st0{fill:#263238;}
	.st1{fill:#4FC3F7;}
	.st2{fill:#FFFFFF;}
	.st3{fill:#FF5592;}
	.st4{fill:#FF5252;}
	.st5{fill:#FFD740;}
	.st6{fill-rule:evenodd;clip-rule:evenodd;fill:#4DB6AC;}
	.st7{fill-rule:evenodd;clip-rule:evenodd;fill:#4FC3F7;}
	.st8{fill-rule:evenodd;clip-rule:evenodd;fill:#FFFFFF;}
	.st9{fill:#4DB6AC;}
	.st10{fill:#6F67D6;}
	.st11{fill:#FF7155;}
	.st12{fill:#445056;}
	.st13{fill:#08141A;}
</style><g><g><circle class="st7" cx="32" cy="32" r="16"/></g><g><path class="st0" d="M52,56.5H12c-2.481,0-4.5-2.019-4.5-4.5V16c0-0.276,0.224-0.5,0.5-0.5s0.5,0.224,0.5,0.5v36    c0,1.93,1.57,3.5,3.5,3.5h40c1.93,0,3.5-1.57,3.5-3.5v-2c0-0.276,0.224-0.5,0.5-0.5s0.5,0.224,0.5,0.5v2    C56.5,54.481,54.481,56.5,52,56.5z"/></g><g><path class="st0" d="M56,48.5c-0.276,0-0.5-0.224-0.5-0.5V12c0-1.93-1.57-3.5-3.5-3.5H12c-1.93,0-3.5,1.57-3.5,3.5v2    c0,0.276-0.224,0.5-0.5,0.5S7.5,14.276,7.5,14v-2c0-2.481,2.019-4.5,4.5-4.5h40c2.481,0,4.5,2.019,4.5,4.5v36    C56.5,48.276,56.276,48.5,56,48.5z"/></g><g><path class="st0" d="M32,48.5c-9.098,0-16.5-7.402-16.5-16.5S22.902,15.5,32,15.5S48.5,22.902,48.5,32S41.098,48.5,32,48.5z     M32,16.5c-8.547,0-15.5,6.953-15.5,15.5S23.453,47.5,32,47.5S47.5,40.547,47.5,32S40.547,16.5,32,16.5z"/></g><g><polygon class="st8" points="23,31 41,25 36,39 30,34   "/></g><g><polygon class="st8" points="30,34 28.136,33.201 28.136,38 31.586,35.322   "/></g><g><path class="st0" d="M36,39.5c-0.115,0-0.229-0.04-0.32-0.116l-5.943-4.954l-6.934-2.971c-0.19-0.082-0.311-0.273-0.303-0.48    c0.009-0.207,0.145-0.388,0.342-0.453l18-6c0.182-0.062,0.382-0.012,0.516,0.125s0.178,0.337,0.113,0.518l-5,14    c-0.055,0.154-0.182,0.271-0.339,0.314C36.088,39.494,36.044,39.5,36,39.5z M24.405,31.059l5.792,2.482    c0.044,0.019,0.086,0.044,0.123,0.075l5.449,4.542l4.414-12.358L24.405,31.059z"/></g><g><path class="st0" d="M28.137,38.5c-0.075,0-0.15-0.017-0.22-0.051c-0.172-0.084-0.28-0.258-0.28-0.449v-4.799    c0-0.168,0.084-0.325,0.225-0.417c0.14-0.093,0.316-0.11,0.473-0.042l1.863,0.799c0.044,0.019,0.086,0.044,0.123,0.075    l1.586,1.321c0.116,0.097,0.183,0.242,0.18,0.393s-0.073,0.293-0.193,0.386l-3.449,2.679C28.354,38.464,28.246,38.5,28.137,38.5z     M28.637,33.959v3.019l2.151-1.671l-1.052-0.877L28.637,33.959z"/></g><g><path class="st0" d="M30,34.5c-0.145,0-0.288-0.062-0.387-0.184c-0.175-0.213-0.144-0.528,0.07-0.704l11-9    c0.214-0.174,0.528-0.144,0.703,0.071c0.175,0.213,0.144,0.528-0.07,0.704l-11,9C30.224,34.463,30.111,34.5,30,34.5z"/></g></g></svg>