<?xml version="1.0" ?><!DOCTYPE svg  PUBLIC '-//W3C//DTD SVG 1.1//EN'  'http://www.w3.org/Graphics/SVG/1.1/DTD/svg11.dtd'><svg height="100%" style="fill-rule:evenodd;clip-rule:evenodd;stroke-linejoin:round;stroke-miterlimit:2;" version="1.1" viewBox="0 0 64 64" width="100%" xml:space="preserve" xmlns="http://www.w3.org/2000/svg" xmlns:serif="http://www.serif.com/" xmlns:xlink="http://www.w3.org/1999/xlink"><g transform="matrix(1,0,0,1,-80,-240)"><g id="behance-apps-platform" transform="matrix(1,0,0,1,80,240)"><rect height="64" style="fill:none;" width="64" x="0" y="0"/><g transform="matrix(1.09804,0,0,1.09804,-90.4314,-266.667)"><path d="M136.848,278L121.249,278C121.987,280.89 124.284,283 127,283C129.037,283 130.838,281.813 131.923,280L136.373,280C134.862,284.659 130.786,288 126,288C119.929,288 115,282.623 115,276C115,269.377 119.929,264 126,264C132.071,264 137,269.377 137,276C137,276.682 136.948,277.35 136.848,278ZM102.996,256C107.416,256 111,259.583 111,264.004C111,264.005 111,264.005 111,264.006C111,265.861 110.263,267.64 108.951,268.952C107.64,270.263 105.861,271 104.006,271L105.018,271C106.87,271 108.646,271.736 109.955,273.045C111.264,274.354 112,276.13 112,277.982C112,277.983 112,277.983 112,277.984C112,280.64 110.945,283.188 109.066,285.066C107.188,286.945 104.64,288 101.984,288L86,288L86,256L102.996,256ZM94,274L94,282L102.002,282C104.21,282 106,280.21 106,278.002C106,278.001 106,277.999 106,277.998C106,275.79 104.21,274 102.002,274L94,274ZM132.422,273C131.458,270.636 129.392,269 127,269C124.608,269 122.542,270.636 121.578,273L132.422,273ZM94,262L94,268L102,268C102.796,268 103.559,267.684 104.121,267.121C104.684,266.559 105,265.796 105,265C105,264.204 104.684,263.441 104.121,262.879C103.559,262.316 102.796,262 102,262L94,262ZM132,258L119,258L119,262L132,262L132,258Z" style="fill:rgb(87,183,235);"/></g><g transform="matrix(1,0,0,1,-80,-240)"><path d="M120.581,265.931C118.613,268.275 117.412,271.398 117.412,274.824C117.412,282.096 122.824,288 129.49,288C132.251,288 134.797,286.987 136.832,285.284C134.623,287.917 131.448,289.569 127.922,289.569C121.255,289.569 115.843,283.664 115.843,276.392C115.843,272.131 117.701,268.34 120.581,265.931ZM85.569,254.431L85.569,288L103.12,288C105.664,288 108.118,287.118 110.072,285.523C109.839,285.809 109.591,286.084 109.328,286.347C107.265,288.41 104.468,289.569 101.551,289.569L84,289.569L84,254.431L85.569,254.431ZM134.746,280.784C134.521,280.998 134.283,281.195 134.035,281.374C134.173,281.185 134.304,280.988 134.425,280.784L134.746,280.784ZM94.353,274.196L94.353,272.627L103.139,272.627C105.564,272.627 107.529,274.593 107.529,277.017C107.529,277.019 107.529,277.02 107.529,277.022C107.529,278.637 106.658,280.048 105.359,280.81C105.742,280.159 105.961,279.4 105.961,278.59C105.961,278.589 105.961,278.587 105.961,278.586C105.961,276.162 103.995,274.196 101.571,274.196L94.353,274.196ZM139.986,277.02C139.964,277.551 139.912,278.075 139.833,278.588L124.844,278.588C124.607,278.096 124.414,277.571 124.273,277.02L139.986,277.02ZM125.572,269.842C126.781,268.187 128.58,267.137 130.588,267.137C133.214,267.137 135.483,268.934 136.542,271.529L134.12,271.529C132.912,269.806 131.075,268.706 129.02,268.706C127.756,268.706 126.575,269.122 125.572,269.842ZM94.353,261.02L94.353,259.451L103.137,259.451C104.011,259.451 104.849,259.798 105.467,260.416C106.084,261.034 106.431,261.871 106.431,262.745C106.431,263.619 106.084,264.457 105.467,265.074C105.197,265.344 104.885,265.563 104.546,265.723C104.753,265.286 104.863,264.806 104.863,264.314C104.863,263.44 104.516,262.602 103.898,261.984C103.28,261.367 102.442,261.02 101.569,261.02L94.353,261.02ZM121.804,259.451L134.51,259.451L134.51,261.02L120.235,261.02L120.235,256.627L121.804,256.627L121.804,259.451Z" style="fill:rgb(72,145,211);"/></g></g></g></svg>