<?xml version="1.0" ?><svg id="Icon_Set" style="enable-background:new 0 0 64 64;" version="1.1" viewBox="0 0 64 64" xml:space="preserve" xmlns="http://www.w3.org/2000/svg" xmlns:xlink="http://www.w3.org/1999/xlink"><style type="text/css">
	.st0{fill:#263238;}
	.st1{fill:#4FC3F7;}
	.st2{fill:#FFFFFF;}
	.st3{fill:#FF5592;}
	.st4{fill:#FF5252;}
	.st5{fill:#FFD740;}
	.st6{fill-rule:evenodd;clip-rule:evenodd;fill:#4DB6AC;}
	.st7{fill-rule:evenodd;clip-rule:evenodd;fill:#4FC3F7;}
	.st8{fill-rule:evenodd;clip-rule:evenodd;fill:#FFFFFF;}
	.st9{fill:#4DB6AC;}
	.st10{fill:#6F67D6;}
	.st11{fill:#FF7155;}
	.st12{fill:#445056;}
	.st13{fill:#08141A;}
</style><g><g><path class="st0" d="M52,56.5H12c-2.481,0-4.5-2.019-4.5-4.5V16c0-0.276,0.224-0.5,0.5-0.5s0.5,0.224,0.5,0.5v36    c0,1.93,1.57,3.5,3.5,3.5h40c1.93,0,3.5-1.57,3.5-3.5v-2c0-0.276,0.224-0.5,0.5-0.5s0.5,0.224,0.5,0.5v2    C56.5,54.481,54.481,56.5,52,56.5z"/></g><g><path class="st0" d="M56,48.5c-0.276,0-0.5-0.224-0.5-0.5V12c0-1.93-1.57-3.5-3.5-3.5H12c-1.93,0-3.5,1.57-3.5,3.5v2    c0,0.276-0.224,0.5-0.5,0.5S7.5,14.276,7.5,14v-2c0-2.481,2.019-4.5,4.5-4.5h40c2.481,0,4.5,2.019,4.5,4.5v36    C56.5,48.276,56.276,48.5,56,48.5z"/></g><g><path class="st1" d="M41.5,21v-6h-8c-3.314,0-6,2.686-6,6v7h-5v6h5v15h6V34h6l2-6h-8v-5c0-1.105,0.895-2,2-2H41.5z"/></g><g><path class="st0" d="M33.5,49.5h-6c-0.276,0-0.5-0.224-0.5-0.5V34.5h-4.5c-0.276,0-0.5-0.224-0.5-0.5v-6    c0-0.276,0.224-0.5,0.5-0.5H27V22c0-4.136,3.364-7.5,7.5-7.5h7c0.276,0,0.5,0.224,0.5,0.5v6c0,0.276-0.224,0.5-0.5,0.5h-6    c-0.827,0-1.5,0.673-1.5,1.5v4.5h7.5c0.161,0,0.312,0.077,0.406,0.208c0.094,0.13,0.12,0.298,0.068,0.451l-2,6    C39.906,34.362,39.715,34.5,39.5,34.5H34V49C34,49.276,33.776,49.5,33.5,49.5z M28,48.5h5V34c0-0.276,0.224-0.5,0.5-0.5h5.64    l1.667-5H33.5c-0.276,0-0.5-0.224-0.5-0.5v-5c0-1.378,1.122-2.5,2.5-2.5H41v-5h-6.5c-3.584,0-6.5,2.916-6.5,6.5v6    c0,0.276-0.224,0.5-0.5,0.5H23v5h4.5c0.276,0,0.5,0.224,0.5,0.5V48.5z"/></g></g></svg>