<?xml version="1.0" ?><svg id="Icon_Set" style="enable-background:new 0 0 64 64;" version="1.1" viewBox="0 0 64 64" xml:space="preserve" xmlns="http://www.w3.org/2000/svg" xmlns:xlink="http://www.w3.org/1999/xlink"><style type="text/css">
	.st0{fill:#263238;}
	.st1{fill:#4FC3F7;}
	.st2{fill:#FFFFFF;}
	.st3{fill:#FF5592;}
	.st4{fill:#FF5252;}
	.st5{fill:#FFD740;}
	.st6{fill-rule:evenodd;clip-rule:evenodd;fill:#4DB6AC;}
	.st7{fill-rule:evenodd;clip-rule:evenodd;fill:#4FC3F7;}
	.st8{fill-rule:evenodd;clip-rule:evenodd;fill:#FFFFFF;}
	.st9{fill:#4DB6AC;}
	.st10{fill:#6F67D6;}
	.st11{fill:#FF7155;}
	.st12{fill:#445056;}
	.st13{fill:#08141A;}
</style><g><g><path class="st4" d="M42,45H22c-4.418,0-8-3.582-8-8V27c0-4.418,3.582-8,8-8h20c4.418,0,8,3.582,8,8v10C50,41.418,46.418,45,42,45    z"/></g><g><polygon class="st2" points="28,37 28,27 37,32   "/></g><g><path class="st0" d="M28,37.5c-0.088,0-0.175-0.023-0.253-0.069C27.594,37.341,27.5,37.177,27.5,37V27    c0-0.177,0.094-0.341,0.247-0.431c0.153-0.089,0.342-0.092,0.496-0.006l9,5C37.401,31.651,37.5,31.818,37.5,32    s-0.099,0.349-0.257,0.437l-9,5C28.167,37.479,28.083,37.5,28,37.5z M28.5,27.85v8.301L35.97,32L28.5,27.85z"/></g><g><path class="st0" d="M52,56.5H12c-2.481,0-4.5-2.019-4.5-4.5V16c0-0.276,0.224-0.5,0.5-0.5s0.5,0.224,0.5,0.5v36    c0,1.93,1.57,3.5,3.5,3.5h40c1.93,0,3.5-1.57,3.5-3.5v-2c0-0.276,0.224-0.5,0.5-0.5s0.5,0.224,0.5,0.5v2    C56.5,54.481,54.481,56.5,52,56.5z"/></g><g><path class="st0" d="M56,48.5c-0.276,0-0.5-0.224-0.5-0.5V12c0-1.93-1.57-3.5-3.5-3.5H12c-1.93,0-3.5,1.57-3.5,3.5v2    c0,0.276-0.224,0.5-0.5,0.5S7.5,14.276,7.5,14v-2c0-2.481,2.019-4.5,4.5-4.5h40c2.481,0,4.5,2.019,4.5,4.5v36    C56.5,48.276,56.276,48.5,56,48.5z"/></g><g><path class="st0" d="M42,45.5H22c-4.687,0-8.5-3.813-8.5-8.5V27c0-4.687,3.813-8.5,8.5-8.5h20c4.687,0,8.5,3.813,8.5,8.5v10    C50.5,41.687,46.687,45.5,42,45.5z M22,19.5c-4.136,0-7.5,3.364-7.5,7.5v10c0,4.136,3.364,7.5,7.5,7.5h20    c4.136,0,7.5-3.364,7.5-7.5V27c0-4.136-3.364-7.5-7.5-7.5H22z"/></g></g></svg>