<?xml version="1.0" ?><svg id="Icon_Set" style="enable-background:new 0 0 64 64;" version="1.1" viewBox="0 0 64 64" xml:space="preserve" xmlns="http://www.w3.org/2000/svg" xmlns:xlink="http://www.w3.org/1999/xlink"><style type="text/css">
	.st0{fill:#263238;}
	.st1{fill:#4FC3F7;}
	.st2{fill:#FFFFFF;}
	.st3{fill:#FF5592;}
	.st4{fill:#FF5252;}
	.st5{fill:#FFD740;}
	.st6{fill-rule:evenodd;clip-rule:evenodd;fill:#4DB6AC;}
	.st7{fill-rule:evenodd;clip-rule:evenodd;fill:#4FC3F7;}
	.st8{fill-rule:evenodd;clip-rule:evenodd;fill:#FFFFFF;}
	.st9{fill:#4DB6AC;}
	.st10{fill:#6F67D6;}
	.st11{fill:#FF7155;}
	.st12{fill:#445056;}
	.st13{fill:#08141A;}
</style><g><g><path class="st0" d="M52,56.5H12c-2.481,0-4.5-2.019-4.5-4.5V16c0-0.276,0.224-0.5,0.5-0.5s0.5,0.224,0.5,0.5v36    c0,1.93,1.57,3.5,3.5,3.5h40c1.93,0,3.5-1.57,3.5-3.5v-2c0-0.276,0.224-0.5,0.5-0.5s0.5,0.224,0.5,0.5v2    C56.5,54.481,54.481,56.5,52,56.5z"/></g><g><path class="st0" d="M56,48.5c-0.276,0-0.5-0.224-0.5-0.5V12c0-1.93-1.57-3.5-3.5-3.5H12c-1.93,0-3.5,1.57-3.5,3.5v2    c0,0.276-0.224,0.5-0.5,0.5S7.5,14.276,7.5,14v-2c0-2.481,2.019-4.5,4.5-4.5h40c2.481,0,4.5,2.019,4.5,4.5v36    C56.5,48.276,56.276,48.5,56,48.5z"/></g><g><rect class="st1" height="3" width="10" x="37.062" y="20.119"/></g><g><path class="st0" d="M47.062,23.619h-10c-0.276,0-0.5-0.224-0.5-0.5v-3c0-0.276,0.224-0.5,0.5-0.5h10c0.276,0,0.5,0.224,0.5,0.5v3    C47.562,23.396,47.339,23.619,47.062,23.619z M37.562,22.619h9v-2h-9V22.619z"/></g><g><path class="st1" d="M29.589,30.665c0.842-1.033,1.349-2.35,1.349-3.784v-1c0-3.314-2.686-6-6-6h-11v24h11c3.866,0,7-3.134,7-7v-1    C31.937,33.808,31.026,31.948,29.589,30.665z M17.937,23.881h7c1.103,0,2,0.897,2,2v1c0,1.103-0.897,2-2,2h-7V23.881z     M27.937,36.881c0,1.654-1.346,3-3,3h-7v-7h7c1.654,0,3,1.346,3,3V36.881z"/></g><g><path class="st0" d="M24.937,44.381h-11c-0.276,0-0.5-0.224-0.5-0.5v-24c0-0.276,0.224-0.5,0.5-0.5h11c3.584,0,6.5,2.916,6.5,6.5    v1c0,1.333-0.416,2.64-1.181,3.729c1.392,1.403,2.181,3.299,2.181,5.271v1C32.437,41.017,29.073,44.381,24.937,44.381z     M14.437,43.381h10.5c3.584,0,6.5-2.916,6.5-6.5v-1c0-1.841-0.795-3.606-2.182-4.843c-0.199-0.178-0.224-0.481-0.055-0.689    c0.797-0.979,1.236-2.21,1.236-3.468v-1c0-3.033-2.468-5.5-5.5-5.5h-10.5V43.381z M24.937,40.381h-7c-0.276,0-0.5-0.224-0.5-0.5    v-7c0-0.276,0.224-0.5,0.5-0.5h7c1.93,0,3.5,1.57,3.5,3.5v1C28.437,38.811,26.867,40.381,24.937,40.381z M18.437,39.381h6.5    c1.379,0,2.5-1.122,2.5-2.5v-1c0-1.378-1.121-2.5-2.5-2.5h-6.5V39.381z M24.937,29.381h-7c-0.276,0-0.5-0.224-0.5-0.5v-5    c0-0.276,0.224-0.5,0.5-0.5h7c1.379,0,2.5,1.122,2.5,2.5v1C27.437,28.259,26.316,29.381,24.937,29.381z M18.437,28.381h6.5    c0.827,0,1.5-0.673,1.5-1.5v-1c0-0.827-0.673-1.5-1.5-1.5h-6.5V28.381z"/></g><g><path class="st1" d="M50.062,36.119v-2c0-4.411-3.589-8-8-8c-4.411,0-8,3.589-8,8v2c0,4.411,3.589,8,8,8    c3.719,0,6.845-2.555,7.737-6h-4.293c-0.694,1.19-1.97,2-3.444,2c-2.206,0-4-1.794-4-4v0H50.062z M42.062,30.119    c1.859,0,3.411,1.28,3.858,3h-7.716C38.652,31.399,40.204,30.119,42.062,30.119z"/></g><g><path class="st0" d="M42.062,44.619c-4.687,0-8.5-3.813-8.5-8.5v-2c0-4.687,3.813-8.5,8.5-8.5c4.687,0,8.5,3.813,8.5,8.5v2    c0,0.276-0.224,0.5-0.5,0.5H38.598c0.244,1.694,1.705,3,3.465,3c1.246,0,2.372-0.655,3.012-1.752    c0.089-0.153,0.254-0.248,0.432-0.248h4.293c0.154,0,0.301,0.072,0.396,0.194c0.095,0.123,0.127,0.282,0.089,0.432    C49.312,41.998,45.931,44.619,42.062,44.619z M42.062,26.619c-4.136,0-7.5,3.364-7.5,7.5v2c0,4.136,3.364,7.5,7.5,7.5    c3.193,0,6.01-2.026,7.062-5h-3.342c-0.834,1.241-2.234,2-3.72,2c-2.481,0-4.5-2.019-4.5-4.5c0-0.276,0.224-0.5,0.5-0.5l11.5,0    v-1.5C49.562,29.983,46.198,26.619,42.062,26.619z M50.062,36.119h0.01H50.062z M45.92,33.619h-7.715    c-0.154,0-0.301-0.072-0.396-0.194c-0.095-0.123-0.127-0.282-0.089-0.432c0.516-1.987,2.301-3.374,4.342-3.374    c2.041,0,3.826,1.387,4.342,3.374c0.038,0.15,0.006,0.309-0.089,0.432C46.221,33.547,46.074,33.619,45.92,33.619z M38.916,32.619    h6.293c-0.57-1.204-1.785-2-3.146-2C40.701,30.619,39.486,31.415,38.916,32.619z"/></g></g></svg>