<?xml version="1.0" ?><svg id="Icon_Set" style="enable-background:new 0 0 64 64;" version="1.1" viewBox="0 0 64 64" xml:space="preserve" xmlns="http://www.w3.org/2000/svg" xmlns:xlink="http://www.w3.org/1999/xlink"><style type="text/css">
	.st0{fill:#263238;}
	.st1{fill:#4FC3F7;}
	.st2{fill:#FFFFFF;}
	.st3{fill:#FF5592;}
	.st4{fill:#FF5252;}
	.st5{fill:#FFD740;}
	.st6{fill-rule:evenodd;clip-rule:evenodd;fill:#4DB6AC;}
	.st7{fill-rule:evenodd;clip-rule:evenodd;fill:#4FC3F7;}
	.st8{fill-rule:evenodd;clip-rule:evenodd;fill:#FFFFFF;}
	.st9{fill:#4DB6AC;}
	.st10{fill:#6F67D6;}
	.st11{fill:#FF7155;}
	.st12{fill:#445056;}
	.st13{fill:#08141A;}
</style><g><g><path class="st3" d="M41,49H23c-4.418,0-8-3.582-8-8V23c0-4.418,3.582-8,8-8h18c4.418,0,8,3.582,8,8v18C49,45.418,45.418,49,41,49    z"/></g><g><circle class="st2" cx="32" cy="32" r="9"/></g><g><path class="st0" d="M52,56.5H12c-2.481,0-4.5-2.019-4.5-4.5V16c0-0.276,0.224-0.5,0.5-0.5s0.5,0.224,0.5,0.5v36    c0,1.93,1.57,3.5,3.5,3.5h40c1.93,0,3.5-1.57,3.5-3.5v-2c0-0.276,0.224-0.5,0.5-0.5s0.5,0.224,0.5,0.5v2    C56.5,54.481,54.481,56.5,52,56.5z"/></g><g><path class="st0" d="M56,48.5c-0.276,0-0.5-0.224-0.5-0.5V12c0-1.93-1.57-3.5-3.5-3.5H12c-1.93,0-3.5,1.57-3.5,3.5v2    c0,0.276-0.224,0.5-0.5,0.5S7.5,14.276,7.5,14v-2c0-2.481,2.019-4.5,4.5-4.5h40c2.481,0,4.5,2.019,4.5,4.5v36    C56.5,48.276,56.276,48.5,56,48.5z"/></g><g><path class="st0" d="M32,41.5c-5.238,0-9.5-4.262-9.5-9.5s4.262-9.5,9.5-9.5s9.5,4.262,9.5,9.5S37.238,41.5,32,41.5z M32,23.5    c-4.687,0-8.5,3.813-8.5,8.5s3.813,8.5,8.5,8.5c4.687,0,8.5-3.813,8.5-8.5S36.687,23.5,32,23.5z"/></g><g><circle class="st2" cx="42" cy="22" r="2"/></g><g><path class="st0" d="M42,24.5c-1.379,0-2.5-1.122-2.5-2.5s1.121-2.5,2.5-2.5s2.5,1.122,2.5,2.5S43.379,24.5,42,24.5z M42,20.5    c-0.827,0-1.5,0.673-1.5,1.5s0.673,1.5,1.5,1.5s1.5-0.673,1.5-1.5S42.827,20.5,42,20.5z"/></g><g><path class="st0" d="M41,49.5H23c-4.687,0-8.5-3.813-8.5-8.5V23c0-4.687,3.813-8.5,8.5-8.5h18c4.687,0,8.5,3.813,8.5,8.5v18    C49.5,45.687,45.687,49.5,41,49.5z M23,15.5c-4.136,0-7.5,3.364-7.5,7.5v18c0,4.136,3.364,7.5,7.5,7.5h18    c4.136,0,7.5-3.364,7.5-7.5V23c0-4.136-3.364-7.5-7.5-7.5H23z"/></g></g></svg>