<?xml version="1.0" ?><!DOCTYPE svg  PUBLIC '-//W3C//DTD SVG 1.1//EN'  'http://www.w3.org/Graphics/SVG/1.1/DTD/svg11.dtd'><svg height="100%" style="fill-rule:evenodd;clip-rule:evenodd;stroke-linejoin:round;stroke-miterlimit:2;" version="1.1" viewBox="0 0 64 64" width="100%" xml:space="preserve" xmlns="http://www.w3.org/2000/svg" xmlns:serif="http://www.serif.com/" xmlns:xlink="http://www.w3.org/1999/xlink"><rect height="64" id="facebook-fb-apps-platform" style="fill:none;" width="64" x="0" y="0"/><g id="facebook-fb-apps-platform1"><g transform="matrix(0.928571,0,0,0.928571,2.28571,2.28571)"><circle cx="32" cy="32" r="28" style="fill:rgb(87,183,235);"/></g><path d="M33,57.981C32.667,57.994 32.334,58 32,58C17.65,58 6,46.35 6,32C6,17.65 17.65,6 32,6C32.334,6 32.667,6.006 33,6.019C19.114,6.544 8,17.985 8,32C8,46.015 19.114,57.456 33,57.981Z" style="fill:rgb(72,145,211);"/><path d="M28,57.694L28,38L21,38C20.448,38 20,37.552 20,37L20,31C20,30.448 20.448,30 21,30L28,30L28,22C28,19.878 28.843,17.843 30.343,16.343C31.843,14.843 33.878,14 36,14C38.397,14 40.725,14 42,14C42.552,14 43,14.448 43,15C43,16.537 43,19.463 43,21C43,21.265 42.895,21.52 42.707,21.707C42.52,21.895 42.265,22 42,22C41.456,22 40.743,22 40,22C38.939,22 37.922,22.421 37.172,23.172C36.421,23.922 36,24.939 36,26C36,28.784 36,30 36,30L42.867,30C43.154,30 43.427,30.123 43.617,30.338C43.807,30.553 43.895,30.839 43.859,31.124C43.658,32.734 43.292,35.664 43.109,37.124C43.047,37.624 42.622,38 42.117,38C40.236,38 36,38 36,38L36,57.694C34.696,57.895 33.36,58 32,58C30.64,58 29.304,57.895 28,57.694Z" style="fill:rgb(249,246,249);"/></g></svg>