<?xml version="1.0" ?><!DOCTYPE svg  PUBLIC '-//W3C//DTD SVG 1.1//EN'  'http://www.w3.org/Graphics/SVG/1.1/DTD/svg11.dtd'><svg height="100%" style="fill-rule:evenodd;clip-rule:evenodd;stroke-linejoin:round;stroke-miterlimit:2;" version="1.1" viewBox="0 0 64 64" width="100%" xml:space="preserve" xmlns="http://www.w3.org/2000/svg" xmlns:serif="http://www.serif.com/" xmlns:xlink="http://www.w3.org/1999/xlink"><g transform="matrix(1,0,0,1,-80,0)"><g id="instagram-ig-apps-platform" transform="matrix(1,0,0,1,80,7.10543e-15)"><rect height="64" style="fill:none;" width="64" x="0" y="0"/><g transform="matrix(-1,0,0,1,144,-7.10543e-15)"><path d="M138,16C138,10.481 133.519,6 128,6L96,6C90.481,6 86,10.481 86,16L86,48C86,53.519 90.481,58 96,58L128,58C133.519,58 138,53.519 138,48L138,16ZM134,18C134,13.585 130.415,10 126,10L98,10C93.585,10 90,13.585 90,18L90,46C90,50.415 93.585,54 98,54L126,54C130.415,54 134,50.415 134,46L134,18ZM112,18C119.727,18 126,24.273 126,32C126,39.727 119.727,46 112,46C104.273,46 98,39.727 98,32C98,24.273 104.273,18 112,18ZM112,22C117.519,22 122,26.481 122,32C122,37.519 117.519,42 112,42C106.481,42 102,37.519 102,32C102,26.481 106.481,22 112,22ZM97,14C98.656,14 100,15.344 100,17C100,18.656 98.656,20 97,20C95.344,20 94,18.656 94,17C94,15.344 95.344,14 97,14Z" style="fill:rgb(221,99,110);"/></g><g transform="matrix(-1,0,0,1,144,-7.10543e-15)"><path d="M115.373,6L111.373,10L98,10C93.585,10 90,13.585 90,18L90,31.373L86,35.373L86,16C86,10.481 90.481,6 96,6L115.373,6Z" style="fill:rgb(128,120,188);"/></g><g transform="matrix(-1,0,0,1,144,-7.10543e-15)"><path d="M138,28.627L138,48C138,53.519 133.519,58 128,58L108.627,58L112.627,54L126,54C130.415,54 134,50.415 134,46L134,32.627L138,28.627Z" style="fill:rgb(252,184,96);"/></g></g></g></svg>