<?xml version="1.0" ?><!DOCTYPE svg  PUBLIC '-//W3C//DTD SVG 1.1//EN'  'http://www.w3.org/Graphics/SVG/1.1/DTD/svg11.dtd'><svg height="100%" style="fill-rule:evenodd;clip-rule:evenodd;stroke-linejoin:round;stroke-miterlimit:2;" version="1.1" viewBox="0 0 64 64" width="100%" xml:space="preserve" xmlns="http://www.w3.org/2000/svg" xmlns:serif="http://www.serif.com/" xmlns:xlink="http://www.w3.org/1999/xlink"><g transform="matrix(1,0,0,1,-400,0)"><g id="linkedin-apps-platform" transform="matrix(1,0,0,1,400,7.10543e-15)"><rect height="64" style="fill:none;" width="64" x="0" y="0"/><g transform="matrix(1.55556,0,0,1.55556,-640,-20.8889)"><path d="M422,26.643C422,26.472 421.932,26.309 421.812,26.188C421.691,26.068 421.528,26 421.357,26C420.204,26 417.796,26 416.643,26C416.472,26 416.309,26.068 416.188,26.188C416.068,26.309 416,26.472 416,26.643C416,30.233 416,47.767 416,51.357C416,51.528 416.068,51.691 416.188,51.812C416.309,51.932 416.472,52 416.643,52C417.796,52 420.204,52 421.357,52C421.528,52 421.691,51.932 421.812,51.812C421.932,51.691 422,51.528 422,51.357C422,47.767 422,30.233 422,26.643Z" style="fill:rgb(87,183,235);"/></g><g transform="matrix(1.55556,0,0,1.55556,-640,-20.8889)"><path d="M432,51.357C432,51.528 431.932,51.691 431.812,51.812C431.691,51.932 431.528,52 431.357,52C430.204,52 427.796,52 426.643,52C426.472,52 426.309,51.932 426.188,51.812C426.068,51.691 426,51.528 426,51.357C426,47.767 426,30.233 426,26.643C426,26.472 426.068,26.309 426.188,26.188C426.309,26.068 426.472,26 426.643,26C427.796,26 430.204,26 431.357,26C431.528,26 431.691,26.068 431.812,26.188C431.932,26.309 432,26.472 432,26.643C432,27.615 432,29.345 432,29.345C433.651,27.305 436.174,26 439,26C443.967,26 448,30.033 448,35C448,35 448,48.257 448,51.357C448,51.528 447.932,51.691 447.812,51.812C447.691,51.932 447.528,52 447.357,52C446.204,52 443.796,52 442.643,52C442.472,52 442.309,51.932 442.188,51.812C442.068,51.691 442,51.528 442,51.357C442,48.489 442,37 442,37C442,34.24 439.76,32 437,32C434.24,32 432,34.24 432,37L432,51.357Z" style="fill:rgb(87,183,235);"/></g><g transform="matrix(1.55556,0,0,1.55556,-640,-20.8889)"><circle cx="419" cy="19" r="3" style="fill:rgb(87,183,235);"/></g><g transform="matrix(1,0,0,1,-400,-7.10543e-15)"><path d="M416.444,57L416.444,59C416.444,59.265 416.339,59.52 416.152,59.707C415.964,59.895 415.71,60 415.444,60C413.65,60 409.905,60 408.111,60C407.846,60 407.592,59.895 407.404,59.707C407.216,59.52 407.111,59.265 407.111,59L407.111,57L416.444,57Z" style="fill:rgb(72,145,211);"/></g><g transform="matrix(1,0,0,1,-400,-7.10543e-15)"><path d="M456.889,57L456.889,59C456.889,59.265 456.784,59.52 456.596,59.707C456.408,59.895 456.154,60 455.889,60C454.095,60 450.35,60 448.556,60C448.29,60 448.036,59.895 447.848,59.707C447.661,59.52 447.556,59.265 447.556,59L447.556,57L456.889,57ZM432,57L432,59C432,59.265 431.895,59.52 431.707,59.707C431.52,59.895 431.265,60 431,60C429.206,60 425.461,60 423.667,60C423.401,60 423.147,59.895 422.96,59.707C422.772,59.52 422.667,59.265 422.667,59L422.667,57L432,57Z" style="fill:rgb(72,145,211);"/></g></g></g></svg>