<?xml version="1.0" ?><!DOCTYPE svg  PUBLIC '-//W3C//DTD SVG 1.1//EN'  'http://www.w3.org/Graphics/SVG/1.1/DTD/svg11.dtd'><svg height="100%" style="fill-rule:evenodd;clip-rule:evenodd;stroke-linejoin:round;stroke-miterlimit:2;" version="1.1" viewBox="0 0 64 64" width="100%" xml:space="preserve" xmlns="http://www.w3.org/2000/svg" xmlns:serif="http://www.serif.com/" xmlns:xlink="http://www.w3.org/1999/xlink"><g transform="matrix(1,0,0,1,-640,-80)"><g id="telegram-apps-platform" transform="matrix(1,0,0,1,640,80)"><rect height="64" style="fill:none;" width="64" x="0" y="0"/><g transform="matrix(1,0,0,1,-640,-80)"><circle cx="672" cy="112" r="26" style="fill:rgb(87,183,235);"/></g><g transform="matrix(1,0,0,1,-640,-80)"><path d="M654.646,92.646C650.515,97.249 648,103.333 648,110C648,124.35 659.65,136 674,136C680.667,136 686.751,133.485 691.354,129.354C686.592,134.66 679.683,138 672,138C657.65,138 646,126.35 646,112C646,104.317 649.34,97.408 654.646,92.646Z" style="fill:rgb(72,145,211);"/></g><g transform="matrix(1,0,0,1,-640,-80)"><path d="M654.699,113.81C654.293,113.688 654.008,113.324 653.987,112.901C653.966,112.479 654.214,112.088 654.605,111.927C661.27,109.183 678.8,101.965 684.314,99.694C684.652,99.555 685.038,99.611 685.323,99.84C685.607,100.069 685.744,100.435 685.68,100.795C684.758,105.958 682.11,120.783 681.264,125.524C681.205,125.853 680.986,126.131 680.679,126.264C680.373,126.398 680.02,126.37 679.738,126.189C676.987,124.42 670.492,120.245 667.999,118.642C667.75,118.482 667.585,118.222 667.548,117.929C667.51,117.637 667.603,117.342 667.802,117.125C670.336,114.361 678,106 678,106C678,106 664.818,114.239 662.384,115.76C662.14,115.913 661.842,115.953 661.566,115.87C660.396,115.519 657.096,114.529 654.699,113.81Z" style="fill:rgb(249,246,249);"/></g></g></g></svg>