<?xml version="1.0" ?><!DOCTYPE svg  PUBLIC '-//W3C//DTD SVG 1.1//EN'  'http://www.w3.org/Graphics/SVG/1.1/DTD/svg11.dtd'><svg height="100%" style="fill-rule:evenodd;clip-rule:evenodd;stroke-linejoin:round;stroke-miterlimit:2;" version="1.1" viewBox="0 0 64 64" width="100%" xml:space="preserve" xmlns="http://www.w3.org/2000/svg" xmlns:serif="http://www.serif.com/" xmlns:xlink="http://www.w3.org/1999/xlink"><g transform="matrix(1,0,0,1,-240,0)"><g id="youtube-apps-platform" transform="matrix(1,0,0,1,240,7.10543e-15)"><rect height="64" style="fill:none;" width="64" x="0" y="0"/><g transform="matrix(1,0,0,1,-240,-7.10543e-15)"><path d="M299.477,20.203C299.243,17.215 296.839,14.858 293.847,14.685C288.6,14.389 280.106,14 272,14C263.894,14 255.4,14.389 250.152,14.682C247.159,14.855 244.754,17.213 244.52,20.203C244.266,23.488 244,27.877 244,32C244,36.123 244.266,40.512 244.523,43.797C244.757,46.785 247.161,49.142 250.153,49.315C255.4,49.611 263.894,50 272,50C280.106,50 288.6,49.611 293.848,49.318C296.841,49.145 299.246,46.787 299.48,43.797C299.734,40.512 300,36.123 300,32C300,27.877 299.734,23.488 299.477,20.203Z" style="fill:rgb(221,99,110);"/></g><g transform="matrix(1,0,0,1,-240,-7.10543e-15)"><path d="M247.378,15.548C246.9,16.331 246.596,17.234 246.52,18.203C246.266,21.488 246,25.877 246,30C246,34.123 246.266,38.512 246.523,41.797C246.757,44.785 249.161,47.142 252.153,47.315C257.4,47.611 265.894,48 274,48C282.106,48 290.6,47.611 295.848,47.318C296.86,47.26 297.806,46.951 298.622,46.452C297.625,48.086 295.871,49.201 293.848,49.318C288.6,49.611 280.106,50 272,50C263.894,50 255.4,49.611 250.153,49.315C247.161,49.142 244.757,46.785 244.523,43.797C244.266,40.512 244,36.123 244,32C244,27.877 244.266,23.488 244.52,20.203C244.675,18.225 245.78,16.523 247.378,15.548Z" style="fill:rgb(218,74,84);"/></g><g transform="matrix(1.11111,0,0,1.5,-269.333,-16)"><path d="M265.255,26.398C264.976,26.31 264.657,26.331 264.405,26.454C264.152,26.578 264,26.787 264,27.011C264,29.274 264,34.726 264,36.989C264,37.213 264.152,37.422 264.405,37.546C264.657,37.669 264.976,37.69 265.255,37.602C268.484,36.577 277.099,33.842 280.97,32.613C281.301,32.508 281.515,32.267 281.515,32C281.515,31.733 281.301,31.492 280.97,31.387C277.099,30.158 268.484,27.423 265.255,26.398Z" style="fill:rgb(249,246,249);"/></g></g></g></svg>